<svg xmlns="http://www.w3.org/2000/svg" version="1.0" width="145.000000pt" height="151.000000pt" viewBox="0 0 145.000000 151.000000" preserveAspectRatio="xMidYMid meet">
<metadata>
Created by potrace 1.16, written by Peter Selinger 2001-2019
</metadata>
<g transform="translate(0.000000,151.000000) scale(0.100000,-0.100000)" fill="#ffffff" stroke="none">
<path d="M585 1390 c-49 -16 -169 -52 -265 -80 -98 -29 -181 -58 -187 -68 -10 -11 -13 -70 -13 -211 0 -345 20 -471 97 -613 36 -67 130 -168 208 -223 84 -59 267 -155 296 -155 27 0 194 86 282 144 132 88 244 251 288 421 18 69 22 117 26 355 2 151 1 280 -4 286 -4 7 -91 35 -193 64 -102 28 -231 64 -286 81 -56 16 -114 29 -130 28 -16 -1 -69 -14 -119 -29z m295 -95 c74 -21 185 -52 245 -70 l110 -31 -1 -240 c-1 -209 -3 -250 -22 -326 -35 -143 -112 -267 -213 -345 -61 -46 -252 -153 -275 -153 -21 0 -149 66 -225 116 -92 61 -180 158 -223 246 -56 114 -66 178 -66 455 l0 241 98 30 c110 34 320 96 372 111 41 11 29 13 200 -34z" />
<path d="M575 1150 c-11 -4 -39 -27 -62 -49 -23 -23 -50 -41 -60 -41 -38 -1 -73 -48 -73 -97 0 -21 -8 -33 -30 -46 -60 -36 -80 -129 -39 -181 16 -21 19 -34 14 -64 -13 -78 53 -171 114 -159 23 5 28 0 47 -42 36 -81 134 -133 193 -102 21 12 21 14 21 385 0 349 -1 374 -18 389 -20 18 -73 21 -107 7z m75 -390 c0 -305 -2 -340 -16 -340 -28 0 -73 33 -89 66 -21 45 -19 68 10 102 29 34 31 45 11 61 -10 9 -24 3 -62 -29 -58 -48 -93 -51 -108 -7 -14 38 2 77 43 104 19 13 49 23 66 23 36 0 53 23 34 46 -16 20 -69 17 -114 -6 -22 -11 -45 -20 -52 -20 -20 0 -32 41 -21 73 11 31 33 39 103 35 45 -3 50 -1 53 19 3 18 -3 24 -30 31 -29 7 -33 13 -36 44 -4 47 24 59 67 29 49 -35 72 -21 50 31 -12 29 -11 33 15 54 15 13 38 24 52 24 l24 0 0 -340z" />
<path d="M740 1141 c-13 -25 -13 -208 0 -216 33 -21 89 -7 119 29 10 12 34 16 102 16 48 0 91 -4 94 -10 9 -15 41 -12 55 5 15 19 6 61 -16 69 -9 4 -27 0 -40 -9 -41 -26 -71 -19 -100 24 -56 85 -187 141 -214 92z" />
<path d="M970 930 c-8 -5 -27 -10 -41 -10 -15 0 -37 -9 -51 -19 -17 -14 -44 -21 -84 -23 l-59 -3 -3 -40 c-5 -61 7 -65 185 -65 127 0 155 -3 159 -15 9 -21 67 -19 87 3 22 24 21 44 -1 72 -20 25 -58 23 -86 -5 -27 -28 -43 -18 -51 33 -7 49 -21 82 -33 82 -4 0 -14 -5 -22 -10z" />
<path d="M752 742 c-6 -2 -6 -18 0 -42 10 -40 11 -40 59 -40 45 0 50 -3 90 -50 34 -41 49 -50 85 -56 30 -4 48 -13 59 -30 17 -26 44 -31 63 -12 32 32 -7 84 -55 74 -48 -10 -53 1 -40 77 9 57 9 70 -3 77 -13 8 -235 10 -258 2z" />
<path d="M748 499 c-3 -145 -3 -146 57 -135 42 8 139 94 153 136 10 28 10 29 -25 32 -30 2 -42 11 -68 48 -28 39 -37 45 -73 48 l-41 3 -3 -132z" />
</g>
</svg>